HIERARCHY
ROOT Hips
{
	OFFSET -0.001795 -0.223333 0.028219
	CHANNELS 6 Xposition Yposition Zposition Zrotation Yrotation Xrotation 
	JOINT LeftUpLeg
	{
		OFFSET 0.069520 -0.091406 -0.006815
		CHANNELS 3 Zrotation Yrotation Xrotation
		JOINT LeftLeg
		{
			OFFSET 0.034277 -0.375199 -0.004496
			CHANNELS 3 Zrotation Yrotation Xrotation
			JOINT LeftFoot
			{
				OFFSET -0.013596 -0.397961 -0.043693
				CHANNELS 3 Zrotation Yrotation Xrotation
				JOINT LeftToe
				{
					OFFSET 0.026358 -0.055791 0.119288
					CHANNELS 3 Zrotation Yrotation Xrotation
					End Site
					{
						OFFSET 0.000000 0.000000 0.000000
					}
				}
			}
		}
	}
	JOINT RightUpLeg
	{
		OFFSET -0.067670 -0.090522 -0.004320
		CHANNELS 3 Zrotation Yrotation Xrotation
		JOINT RightLeg
		{
			OFFSET -0.038290 -0.382569 -0.008850
			CHANNELS 3 Zrotation Yrotation Xrotation
			JOINT RightFoot
			{
				OFFSET 0.015774 -0.398415 -0.042312
				CHANNELS 3 Zrotation Yrotation Xrotation
				JOINT RightToe
				{
					OFFSET -0.025372 -0.048144 0.123348
					CHANNELS 3 Zrotation Yrotation Xrotation
					End Site
					{
						OFFSET 0.000000 0.000000 0.000000
					}
				}
			}
		}
	}
	JOINT Spine
	{
		OFFSET -0.002533 0.108963 -0.026696
		CHANNELS 3 Zrotation Yrotation Xrotation
		JOINT Spine1
		{
			OFFSET 0.005487 0.135180 0.001092
			CHANNELS 3 Zrotation Yrotation Xrotation
			JOINT Spine2
			{
				OFFSET 0.001457 0.052922 0.025425
				CHANNELS 3 Zrotation Yrotation Xrotation
				JOINT Neck
				{
					OFFSET -0.002778 0.213870 -0.042857
					CHANNELS 3 Zrotation Yrotation Xrotation
					JOINT Head
					{
						OFFSET 0.005152 0.064970 0.051349
						CHANNELS 3 Zrotation Yrotation Xrotation
						End Site
						{
							OFFSET 0.000000 0.000000 0.000000
						}
					}
				}
				JOINT LeftShoulder
				{
					OFFSET 0.078845 0.121749 -0.034090
					CHANNELS 3 Zrotation Yrotation Xrotation
					JOINT LeftArm
					{
						OFFSET 0.090977 0.030469 -0.008868
						CHANNELS 3 Zrotation Yrotation Xrotation
						JOINT LeftForeArm
						{
							OFFSET 0.259612 -0.012772 -0.027456
							CHANNELS 3 Zrotation Yrotation Xrotation
							JOINT LeftHand
							{
								OFFSET 0.249234 0.008986 -0.001171
								CHANNELS 3 Zrotation Yrotation Xrotation
								End Site
								{
									OFFSET 0.000000 0.000000 0.000000
								}
							}
						}
					}
				}
				JOINT RightShoulder
				{
					OFFSET -0.081759 0.118833 -0.038615
					CHANNELS 3 Zrotation Yrotation Xrotation
					JOINT RightArm
					{
						OFFSET -0.096012 0.032551 -0.009143
						CHANNELS 3 Zrotation Yrotation Xrotation
						JOINT RightForeArm
						{
							OFFSET -0.253742 -0.013329 -0.021401
							CHANNELS 3 Zrotation Yrotation Xrotation
							JOINT RightHand
							{
								OFFSET -0.255298 0.007772 -0.005559
								CHANNELS 3 Zrotation Yrotation Xrotation
								End Site
								{
									OFFSET 0.000000 0.000000 0.000000
								}
							}
						}
					}
				}
			}
		}
	}
}
MOTION
Frames: 16
Frame Time: 0.050000
0.000000 0.942164 0.000000 -0.214725 -3.127061 7.698148 5.381825 -0.301802 -3.775662 0.295193 0.132415 -4.494045 1.347717 8.210255 19.980881 0.000000 0.000000 0.000000 -3.200637 0.456239 -4.228777 -3.180412 -0.150047 -6.962597 1.640584 -4.881353 18.967279 0.000000 0.000000 0.000000 5.852795 0.311995 -5.343773 -2.566039 1.180452 -2.962842 -3.904715 5.272032 2.169779 7.332711 -3.810380 -10.233220 0.000000 0.000000 0.000000 -17.504282 -0.284997 -2.589794 -53.715003 -5.388747 -3.598434 -11.118681 -16.929011 2.110800 0.000000 0.000000 0.000000 16.112903 -5.628252 -3.577380 60.887644 6.925861 -1.931629 11.774351 18.917315 2.507863 0.000000 0.000000 0.000000 
0.000279 0.941443 0.000158 -0.414366 -3.825085 8.474240 5.335627 -0.298274 -3.630435 0.603575 0.171404 -5.961372 1.720493 8.657009 20.207634 0.000000 0.000000 0.000000 -2.830212 0.567154 -5.644262 -3.629734 -0.081096 -6.133576 1.866006 -4.517722 18.585391 0.000000 0.000000 0.000000 6.827528 0.360040 -5.741365 -3.049614 1.381128 -3.222223 -4.685794 5.809219 1.478441 8.118603 -4.205071 -10.700015 0.000000 0.000000 0.000000 -18.385729 0.381495 -3.172653 -52.446791 -5.381759 -3.393553 -12.156325 -16.882038 2.235956 0.000000 0.000000 0.000000 15.706848 -6.779843 -4.085967 62.209830 6.421771 -2.076920 12.376730 18.590344 2.554308 0.000000 0.000000 0.000000 
0.000442 0.941355 0.000173 -0.109518 -3.644517 8.216971 4.916528 -0.315258 -3.946367 0.767703 0.119997 -5.012972 1.659311 8.560672 19.979927 0.000000 0.000000 0.000000 -2.887321 0.563938 -5.638691 -4.123058 -0.019412 -5.599232 1.691640 -4.674483 18.277206 0.000000 0.000000 0.000000 6.577210 0.326224 -5.419406 -2.797735 1.261394 -4.124835 -5.119722 5.637224 1.801925 7.767353 -4.240059 -9.362776 0.000000 0.000000 0.000000 -18.237473 -0.230136 -2.822135 -52.535408 -4.717800 -3.728701 -11.608399 -16.360575 2.095728 0.000000 0.000000 0.000000 16.675346 -5.864835 -3.707229 61.224237 6.156103 -2.300142 12.309190 19.640660 2.714885 0.000000 0.000000 0.000000 
0.000552 0.941291 0.000249 -0.036881 -3.585858 8.621402 5.297625 -0.326844 -4.185821 -0.039904 0.189789 -5.401400 1.591030 8.499787 20.131620 0.000000 0.000000 0.000000 -2.934519 0.594780 -6.005950 -4.204456 -0.024154 -5.712705 1.646437 -4.757721 18.338515 0.000000 0.000000 0.000000 6.681776 0.319740 -5.431137 -3.048097 1.371179 -3.895461 -4.959374 4.990563 0.465869 7.906251 -4.519550 -8.385061 0.000000 0.000000 0.000000 -18.302884 0.739069 -3.230474 -52.659274 -5.159339 -3.435932 -11.152677 -15.505758 1.931293 0.000000 0.000000 0.000000 15.766270 -6.159267 -3.904123 61.510412 5.829840 -2.301749 13.245892 19.576868 2.814868 0.000000 0.000000 0.000000 
0.000584 0.941716 0.000249 0.200910 -3.089454 8.579903 4.932547 -0.346310 -4.399831 0.237973 0.161702 -5.148143 1.303061 8.190601 20.185286 0.000000 0.000000 0.000000 -3.075721 0.585720 -5.918735 -4.348519 -0.009099 -5.637170 1.393855 -5.115493 18.430460 0.000000 0.000000 0.000000 6.357660 0.325715 -5.577277 -2.677874 1.219192 -3.688270 -5.291658 4.754747 0.248173 7.761083 -4.362553 -8.607331 0.000000 0.000000 0.000000 -18.206927 0.201042 -2.976531 -52.682121 -5.577682 -3.231226 -10.947085 -14.712074 1.803103 0.000000 0.000000 0.000000 15.620313 -6.338529 -3.959628 61.588373 5.778703 -2.296758 13.235736 19.576280 2.816610 0.000000 0.000000 0.000000 
0.000635 0.942084 0.000259 0.275951 -2.802329 8.675573 5.048751 -0.349530 -4.423569 -0.061929 0.190610 -5.402012 1.098507 7.987017 20.360327 0.000000 0.000000 0.000000 -2.987467 0.586048 -5.932700 -4.618726 0.000215 -5.705829 1.272939 -5.320260 18.601643 0.000000 0.000000 0.000000 6.235844 0.329433 -5.674342 -2.489798 1.139195 -3.862879 -5.454301 4.650574 0.148263 8.108792 -4.682810 -8.159120 0.000000 0.000000 0.000000 -18.293001 0.336301 -3.084766 -52.523850 -5.547822 -3.216520 -10.544502 -14.692901 1.747906 0.000000 0.000000 0.000000 15.563200 -6.296244 -3.917708 61.784457 5.694978 -2.324048 12.994989 19.366907 2.744890 0.000000 0.000000 0.000000 
0.000662 0.942420 0.000204 0.422021 -2.445541 8.590591 4.890840 -0.359682 -4.538432 -0.001811 0.178475 -5.179303 0.888545 7.762940 20.394996 0.000000 0.000000 0.000000 -3.063255 0.578698 -5.864635 -4.715786 0.019249 -5.550451 1.089837 -5.572146 18.651972 0.000000 0.000000 0.000000 6.117894 0.331907 -5.734723 -2.566679 1.177498 -3.575320 -5.474652 4.247002 -0.049235 8.115297 -4.633763 -8.433814 0.000000 0.000000 0.000000 -18.263096 0.444140 -3.098013 -52.409428 -5.442723 -3.239847 -10.185924 -14.540836 1.688832 0.000000 0.000000 0.000000 15.453641 -6.256928 -3.922307 61.849974 5.355992 -2.484118 12.777004 19.131566 2.662055 0.000000 0.000000 0.000000 
0.000726 0.942655 0.000049 0.488391 -2.040463 8.669437 4.808980 -0.384101 -4.931111 0.090300 0.158410 -4.798346 0.690769 7.548100 20.361541 0.000000 0.000000 0.000000 -3.078914 0.580701 -5.908537 -4.764522 0.027163 -5.504429 0.891295 -5.855497 18.755166 0.000000 0.000000 0.000000 6.037262 0.329413 -5.777128 -2.531215 1.165262 -3.554003 -5.630212 4.171098 -0.281501 8.196305 -4.762250 -7.985774 0.000000 0.000000 0.000000 -18.182447 0.479675 -3.152664 -52.140589 -5.274977 -3.262613 -9.714215 -14.524691 1.623158 0.000000 0.000000 0.000000 15.552092 -6.642183 -4.101959 61.787119 5.050843 -2.609141 12.396745 18.562809 2.518545 0.000000 0.000000 0.000000 
0.000757 0.942765 -0.000208 0.590228 -1.785221 8.647661 4.625479 -0.397608 -5.103865 0.263327 0.138264 -4.574159 0.559278 7.403234 20.334990 0.000000 0.000000 0.000000 -3.157152 0.572482 -5.817542 -4.787753 0.024669 -5.568307 0.765548 -6.030435 18.810683 0.000000 0.000000 0.000000 5.926955 0.326704 -5.791870 -2.585125 1.189914 -3.700439 -5.546749 3.966756 -0.176225 8.069488 -4.688806 -7.953671 0.000000 0.000000 0.000000 -17.958648 0.714165 -3.205372 -52.081718 -5.197996 -3.313955 -9.419664 -14.278560 1.563781 0.000000 0.000000 0.000000 15.498081 -6.819847 -4.201461 61.556600 4.591024 -2.857076 12.199998 18.250784 2.437601 0.000000 0.000000 0.000000 
0.000733 0.942910 -0.000492 0.644420 -1.616838 8.739086 4.629075 -0.415400 -5.412447 0.191925 0.133133 -4.299654 0.477094 7.316576 20.338070 0.000000 0.000000 0.000000 -3.227374 0.571187 -5.803835 -4.740860 0.008667 -5.749611 0.697584 -6.146369 18.936161 0.000000 0.000000 0.000000 6.000055 0.341095 -5.966799 -2.659555 1.223930 -3.515628 -5.705198 4.057866 -0.400955 8.115769 -4.702235 -7.956760 0.000000 0.000000 0.000000 -17.732591 0.713605 -3.222030 -51.929866 -5.362243 -3.209104 -8.976717 -13.800977 1.453839 0.000000 0.000000 0.000000 15.498930 -7.092775 -4.305087 61.469854 4.330825 -2.955198 11.907676 17.867389 2.342464 0.000000 0.000000 0.000000 
0.000668 0.942982 -0.000782 0.683121 -1.613576 8.843506 4.597961 -0.427142 -5.614594 0.184846 0.129424 -4.184218 0.476386 7.324223 20.374005 0.000000 0.000000 0.000000 -3.223998 0.580073 -5.915963 -4.819294 0.009328 -5.787519 0.696653 -6.160638 18.981673 0.000000 0.000000 0.000000 6.043537 0.345378 -6.025467 -2.690116 1.236358 -3.596424 -5.788909 4.166131 -0.351899 8.150762 -4.742500 -7.855522 0.000000 0.000000 0.000000 -17.684364 0.804846 -3.285745 -51.781256 -5.210019 -3.262398 -8.743380 -13.795270 1.423216 0.000000 0.000000 0.000000 15.392263 -7.278434 -4.364687 61.418224 4.071601 -3.081377 12.060973 17.835602 2.364529 0.000000 0.000000 0.000000 
0.000627 0.943121 -0.001030 0.695322 -1.446461 8.976301 4.795276 -0.435499 -5.801062 -0.144458 0.153676 -4.199070 0.375431 7.225351 20.443322 0.000000 0.000000 0.000000 -3.261029 0.581841 -5.936531 -4.748161 -0.009316 -5.982777 0.633422 -6.271717 19.123008 0.000000 0.000000 0.000000 6.101356 0.352782 -6.141798 -2.697653 1.240869 -3.493321 -5.776699 4.098274 -0.625923 8.184544 -4.800054 -7.638034 0.000000 0.000000 0.000000 -17.654029 1.011591 -3.397431 -51.790354 -5.208259 -3.237886 -8.437627 -13.515068 1.357204 0.000000 0.000000 0.000000 15.090297 -7.630132 -4.507166 61.371436 3.556805 -3.299986 12.229700 17.946275 2.404696 0.000000 0.000000 0.000000 
0.000608 0.943165 -0.001189 0.635686 -1.533667 9.120988 4.871384 -0.445040 -6.021255 -0.170751 0.151502 -4.076608 0.438225 7.299589 20.455974 0.000000 0.000000 0.000000 -3.215407 0.594744 -6.090001 -4.728059 -0.015739 -6.041674 0.688592 -6.216814 19.188593 0.000000 0.000000 0.000000 6.182331 0.360637 -6.229568 -2.630620 1.210876 -3.478962 -5.751337 4.165595 -0.910478 8.352580 -4.942663 -7.466552 0.000000 0.000000 0.000000 -17.688597 1.313015 -3.567250 -51.649351 -5.068072 -3.258759 -8.416692 -13.536200 1.354147 0.000000 0.000000 0.000000 14.956218 -8.063544 -4.711087 61.165491 3.125304 -3.473228 12.654726 18.346030 2.529352 0.000000 0.000000 0.000000 
0.000630 0.943291 -0.001263 0.528910 -1.640583 9.195505 4.921652 -0.446807 -6.088086 -0.072665 0.144043 -4.067952 0.504727 7.379993 20.485541 0.000000 0.000000 0.000000 -3.153728 0.603198 -6.185107 -4.646999 -0.022082 -6.064058 0.764369 -6.137503 19.271909 0.000000 0.000000 0.000000 6.271227 0.371079 -6.325195 -2.641099 1.214923 -3.362331 -5.592157 4.197935 -1.270408 8.392339 -5.045918 -7.062803 0.000000 0.000000 0.000000 -17.433531 1.612773 -3.666876 -51.890829 -4.836780 -3.353950 -8.307486 -13.412400 1.327285 0.000000 0.000000 0.000000 14.632441 -8.361684 -4.832479 61.152523 2.553344 -3.718701 12.901917 18.735238 2.624431 0.000000 0.000000 0.000000 
0.000657 0.943454 -0.001293 0.470256 -1.760556 9.280048 4.987391 -0.448516 -6.169201 -0.098606 0.145370 -4.050060 0.566464 7.460182 20.552952 0.000000 0.000000 0.000000 -3.129894 0.612841 -6.298052 -4.597059 -0.026004 -6.072835 0.841270 -6.056636 19.346285 0.000000 0.000000 0.000000 6.303197 0.381051 -6.423122 -2.592920 1.192250 -3.487832 -5.553456 4.258448 -1.297447 8.457174 -5.125380 -6.903421 0.000000 0.000000 0.000000 -17.342745 1.783600 -3.731365 -51.901170 -4.696560 -3.416498 -8.442665 -13.499457 1.350717 0.000000 0.000000 0.000000 14.512658 -8.571108 -4.923774 61.050700 2.264357 -3.854228 13.104087 19.004592 2.699157 0.000000 0.000000 0.000000 
0.000685 0.943603 -0.001312 0.380639 -1.954697 9.353530 5.073290 -0.448667 -6.245830 -0.114622 0.144493 -3.988385 0.674019 7.587087 20.603792 0.000000 0.000000 0.000000 -3.055391 0.625439 -6.441594 -4.588165 -0.024099 -6.028816 0.954795 -5.926782 19.405055 0.000000 0.000000 0.000000 6.360587 0.391329 -6.506184 -2.659027 1.220403 -3.268046 -5.462783 4.253992 -1.657496 8.599751 -5.225935 -6.863386 0.000000 0.000000 0.000000 -17.102341 1.894252 -3.727219 -52.078320 -4.598017 -3.447633 -8.460113 -13.427990 1.344503 0.000000 0.000000 0.000000 14.147850 -8.753298 -4.986197 61.173097 1.817426 -4.043076 13.428718 19.279259 2.787176 0.000000 0.000000 0.000000 
